<svg preserveAspectRatio="none" overflow="visible" style="display: block;" width="150" height="27" viewBox="0 0 150 27" fill="none" xmlns="http://www.w3.org/2000/svg">
<g id="logo_negativo 1" clip-path="url(#clip0_0_13)">
<path id="Vector" fill-rule="evenodd" clip-rule="evenodd" d="M22.0966 0.0213707H0.552828C0.247535 0.0213707 0 0.270309 0 0.577334V7.47917C0 7.78621 0.247535 8.03517 0.552828 8.03517H12.9729C14.5674 8.03517 16.098 7.39826 17.2243 6.26351L22.4865 0.971489C22.8351 0.620899 22.5876 0.0234451 22.0966 0.0234451V0.0213707Z" fill="white"/>
<path id="Vector_2" fill-rule="evenodd" clip-rule="evenodd" d="M6.51223 26.9566H28.056C28.3613 26.9566 28.6088 26.7076 28.6088 26.4006V19.4988C28.6088 19.1917 28.3613 18.9428 28.056 18.9428H15.6359C14.0414 18.9428 12.5109 19.5796 11.3845 20.7144L6.12237 26.0064C5.77375 26.357 6.02129 26.9545 6.51223 26.9545V26.9566Z" fill="white"/>
<path id="Vector_3" fill-rule="evenodd" clip-rule="evenodd" d="M14.5697 13.4807H21.3336C23.3097 13.4807 25.2055 12.6903 26.604 11.2858L27.8808 10.0018C28.3491 9.53084 28.6111 8.89399 28.6111 8.22804V0.643718C28.6111 0.0711585 27.9242 -0.215121 27.5219 0.189405L14.4933 13.2919C14.3737 13.4122 14.2108 13.4807 14.0416 13.4807H7.33339C5.32217 13.4807 3.3914 14.2835 1.97013 15.7149L0.796405 16.8953C0.288961 17.4056 0.00223226 18.1006 0.00223226 18.8225V26.3156C0.00223226 26.8881 0.689142 27.1744 1.09139 26.7698L14.12 13.6673C14.2396 13.547 14.4026 13.4786 14.5717 13.4786L14.5697 13.4807Z" fill="white"/>
<path id="Vector_4" d="M39.4839 4.86738H51.1985L39.389 14.3893V17.2791H57.5787C57.9541 17.2791 58.2573 16.9741 58.2573 16.5966V13.7233H46.518L58.2573 4.21392V1.31378H40.2884C39.8448 1.31378 39.4859 1.67474 39.4859 2.12075V4.86738H39.4839Z" fill="white"/>
<path id="Vector_5" d="M120.04 17.2791H134.523V13.7254H124.374V10.9747H134.523V7.47917H124.374V4.86738H134.523V1.31378H120.04V17.2791Z" fill="white"/>
<path id="Vector_6" d="M140.493 13.7254V1.31378H136.159V15.2336C136.159 16.3642 137.07 17.2791 138.192 17.2791H150V13.7254H140.493Z" fill="white"/>
<path id="Vector_7" d="M117.482 10.5204C117.018 9.82127 116.402 9.27779 115.627 8.88772C116.115 8.48318 116.496 8.00608 116.775 7.45427C117.053 6.89416 117.191 6.305 117.191 5.68266C117.214 4.47945 116.75 3.44843 115.801 2.59374C114.866 1.73905 113.734 1.3117 112.405 1.3117H97.3805C97.0133 1.3117 96.7141 1.6125 96.7141 1.98177V11.4352C96.7141 11.9248 96.9367 12.3874 97.3164 12.6903L102.343 16.7003C102.812 17.0737 103.391 17.277 103.988 17.277H113.297C114.664 17.277 115.816 16.8455 116.75 15.9825C117.701 15.105 118.175 14.047 118.175 12.8127C118.175 11.9808 117.945 11.2153 117.48 10.5162L117.482 10.5204ZM101.05 4.70557H111.005C111.477 4.70557 111.873 4.85701 112.199 5.15989C112.523 5.45446 112.686 5.82372 112.686 6.26767C112.686 6.7116 112.523 7.06012 112.199 7.363C111.876 7.66587 111.477 7.81731 111.005 7.81731H101.05V4.70557ZM113.288 13.4454C112.965 13.7483 112.566 13.8997 112.094 13.8997H101.05V10.788H112.094C112.559 10.7797 112.952 10.927 113.276 11.2298C113.609 11.5327 113.775 11.902 113.775 12.3376C113.798 12.7732 113.637 13.1425 113.288 13.4454Z" fill="white"/>
<path id="Vector_8" d="M40.1109 20.1315H39.387V25.548H40.1109V20.1315Z" fill="white"/>
<path id="Vector_9" d="M48.4467 24.5979L45.2577 20.1315H44.3583V25.548H45.037V21.0754L48.228 25.548H49.1192V20.1315H48.4467V24.5979Z" fill="white"/>
<path id="Vector_10" d="M57.325 24.4962C57.1599 24.6705 56.9516 24.8053 56.7062 24.8986C56.4586 24.992 56.1822 25.0398 55.8769 25.0398C55.4747 25.0398 55.122 24.9485 54.8208 24.7659C54.5196 24.5834 54.2845 24.3282 54.1153 24.0004C53.9461 23.6727 53.8616 23.2848 53.8616 22.8387C53.8616 22.6167 53.8822 22.4072 53.9255 22.2081C53.9688 22.011 54.0307 21.8305 54.1112 21.6666C54.1916 21.5028 54.2906 21.3575 54.4102 21.231C54.5299 21.1044 54.6619 20.9966 54.8105 20.9074C54.959 20.8182 55.124 20.7518 55.3034 20.702C55.485 20.6542 55.6748 20.6294 55.8769 20.6294C56.178 20.6294 56.4483 20.677 56.6876 20.7704C56.9269 20.8638 57.129 20.9966 57.2941 21.1688C57.4591 21.3409 57.5725 21.5442 57.6344 21.7765H58.4038C58.3543 21.428 58.2161 21.121 57.9892 20.8575C57.7623 20.5941 57.4694 20.3908 57.1063 20.2477C56.7433 20.1046 56.3348 20.0319 55.8769 20.0319C55.6005 20.0319 55.3405 20.063 55.0972 20.1232C54.8538 20.1834 54.6289 20.2705 54.4227 20.3846C54.2163 20.4986 54.0307 20.6377 53.8677 20.8015C53.7048 20.9655 53.5666 21.1521 53.4531 21.3637C53.3397 21.5732 53.253 21.8035 53.1932 22.0504C53.1334 22.2994 53.1024 22.5607 53.1024 22.8387C53.1024 23.4009 53.218 23.8925 53.449 24.3137C53.68 24.7348 54.0039 25.0626 54.4227 25.297C54.8393 25.5293 55.3262 25.6455 55.879 25.6455C56.341 25.6455 56.7536 25.575 57.1125 25.4359C57.4714 25.297 57.7664 25.0937 57.9954 24.8282C58.2244 24.5626 58.3708 24.2452 58.4368 23.876H57.6674C57.6076 24.1145 57.4941 24.3199 57.327 24.4942L57.325 24.4962Z" fill="white"/>
<path id="Vector_11" d="M66.4899 20.3701C66.063 20.146 65.5679 20.0319 65.0048 20.0319C64.718 20.0319 64.4498 20.0609 64.2023 20.119C63.9527 20.1771 63.7238 20.2621 63.5113 20.3742C63.3009 20.4862 63.1111 20.6231 62.9461 20.785C62.7811 20.9467 62.6388 21.1335 62.5232 21.343C62.4077 21.5525 62.319 21.7807 62.2551 22.0297C62.1911 22.2765 62.1602 22.5483 62.1602 22.8408C62.1602 23.4175 62.2777 23.9153 62.5149 24.3344C62.7522 24.7534 63.0823 25.077 63.5113 25.3053C63.9383 25.5335 64.4375 25.6476 65.0048 25.6476C65.2873 25.6476 65.5514 25.6185 65.801 25.5604C66.0505 25.5023 66.2795 25.4173 66.492 25.3053C66.7024 25.1932 66.8922 25.0563 67.0572 24.8945C67.2223 24.7327 67.3646 24.546 67.4801 24.3365C67.5956 24.1269 67.6843 23.8967 67.7483 23.6457C67.8122 23.3947 67.8431 23.1271 67.8431 22.8387C67.8431 22.262 67.7255 21.7621 67.4884 21.3409C67.2511 20.9198 66.919 20.5941 66.492 20.3701H66.4899ZM67.018 23.4693C66.9788 23.6664 66.917 23.8469 66.8323 24.0108C66.7498 24.1747 66.6488 24.3199 66.5312 24.4465C66.4137 24.5729 66.2754 24.6809 66.1207 24.768C65.9639 24.8572 65.7948 24.9236 65.6071 24.9692C65.4214 25.0148 65.2172 25.0377 64.9965 25.0377C64.5633 25.0377 64.192 24.9485 63.8806 24.7722C63.5691 24.5958 63.3318 24.3406 63.1688 24.0087C63.0059 23.6768 62.9234 23.2868 62.9234 22.8367C62.9234 22.6084 62.944 22.3989 62.9832 22.2039C63.0224 22.0089 63.0843 21.8305 63.1688 21.6645C63.2514 21.5007 63.3524 21.3555 63.47 21.2289C63.5876 21.1023 63.7258 20.9945 63.8806 20.9053C64.0373 20.8161 64.2065 20.7497 64.3941 20.704C64.5798 20.6584 64.7841 20.6356 65.0048 20.6356C65.442 20.6356 65.8154 20.7248 66.1248 20.9011C66.4343 21.0775 66.6695 21.3326 66.8345 21.6645C66.9974 21.9965 67.0799 22.3865 67.0799 22.8367C67.0799 23.0586 67.0593 23.2702 67.0201 23.4673L67.018 23.4693Z" fill="white"/>
<path id="Vector_12" d="M75.987 23.3781C75.921 23.2619 75.8303 23.1686 75.7127 23.1022C75.6343 23.0565 75.5353 23.0192 75.4177 22.986C75.5683 22.9403 75.7045 22.8678 75.8262 22.7723C75.985 22.6458 76.1088 22.484 76.1995 22.2869C76.2903 22.0898 76.3356 21.8678 76.3356 21.6189C76.3356 21.2994 76.2676 21.0298 76.1314 20.8078C75.9953 20.5858 75.8056 20.4178 75.558 20.3037C75.3125 20.1896 75.0278 20.1336 74.706 20.1336H71.8161V25.55H72.5402V23.3117H74.6978C74.8938 23.3117 75.0526 23.3615 75.1723 23.459C75.294 23.5585 75.3806 23.7141 75.4363 23.9257L75.888 25.548H76.6574L76.1665 23.8261C76.1108 23.6436 76.051 23.4943 75.985 23.3781H75.987ZM75.098 22.5877C74.9474 22.6686 74.7659 22.708 74.5555 22.708H72.5422V20.729H74.5555C74.8731 20.729 75.1207 20.814 75.3022 20.9841C75.4838 21.1542 75.5745 21.3907 75.5745 21.6936C75.5745 21.9052 75.5332 22.0877 75.4507 22.2392C75.3682 22.3906 75.2506 22.5068 75.1001 22.5877H75.098Z" fill="white"/>
<path id="Vector_13" d="M84.6672 20.563C84.5125 20.4219 84.3328 20.3141 84.125 20.2394C83.9164 20.1668 83.6852 20.1294 83.4336 20.1294H80.6281V25.5459H81.3609V23.3905H83.4359C83.6875 23.3905 83.9164 23.3531 84.1266 23.2806C84.3352 23.2079 84.5164 23.1001 84.6695 22.9591C84.8219 22.8179 84.9414 22.6458 85.0281 22.4466C85.1125 22.2475 85.1562 22.0172 85.1562 21.76C85.1562 21.5028 85.1125 21.2808 85.0281 21.0775C84.9414 20.8763 84.8242 20.7041 84.6695 20.5609L84.6672 20.563ZM84.2633 22.3076C84.1766 22.4653 84.0547 22.5835 83.8977 22.6686C83.7391 22.7516 83.5453 22.793 83.3141 22.793H81.3609V20.729H83.3141C83.6563 20.729 83.9203 20.8223 84.1102 21.009C84.2977 21.1957 84.393 21.4488 84.393 21.7683C84.393 21.9695 84.3492 22.15 84.2648 22.3076H84.2633Z" fill="white"/>
<path id="Vector_14" d="M93.1125 20.3701C92.6852 20.146 92.1906 20.0319 91.6273 20.0319C91.3406 20.0319 91.0719 20.0609 90.825 20.119C90.575 20.1771 90.3461 20.2621 90.1336 20.3742C89.9234 20.4862 89.7336 20.6231 89.5687 20.785C89.4031 20.9467 89.2609 21.1335 89.1453 21.343C89.0305 21.5525 88.9414 21.7807 88.8773 22.0297C88.8133 22.2765 88.7828 22.5483 88.7828 22.8408C88.7828 23.4175 88.9 23.9153 89.1375 24.3344C89.3742 24.7534 89.7047 25.077 90.1336 25.3053C90.5609 25.5335 91.0602 25.6476 91.6273 25.6476C91.9094 25.6476 92.1734 25.6185 92.4234 25.5604C92.6727 25.5023 92.9016 25.4173 93.1141 25.3053C93.325 25.1932 93.5148 25.0563 93.6797 24.8945C93.8445 24.7327 93.9867 24.546 94.1023 24.3365C94.218 24.1269 94.307 23.8967 94.3703 23.6457C94.4344 23.3947 94.4656 23.1271 94.4656 22.8387C94.4656 22.262 94.3477 21.7621 94.1109 21.3409C93.8734 20.9198 93.5414 20.5941 93.1141 20.3701H93.1125ZM93.6406 23.4693C93.6016 23.6664 93.5391 23.8469 93.4547 24.0108C93.3719 24.1747 93.2711 24.3199 93.1539 24.4465C93.0359 24.5729 92.8977 24.6809 92.743 24.768C92.5867 24.8572 92.4172 24.9236 92.2297 24.9692C92.0438 25.0148 91.8398 25.0377 91.6187 25.0377C91.1859 25.0377 90.8141 24.9485 90.5031 24.7722C90.1914 24.5958 89.9539 24.3406 89.7914 24.0087C89.6281 23.6768 89.5461 23.2868 89.5461 22.8367C89.5461 22.6084 89.5664 22.3989 89.6055 22.2039C89.6445 22.0089 89.707 21.8305 89.7914 21.6645C89.8734 21.5007 89.975 21.3555 90.0922 21.2289C90.2102 21.1023 90.3484 20.9945 90.5031 20.9053C90.6594 20.8161 90.8289 20.7497 91.0164 20.704C91.2023 20.6584 91.4062 20.6356 91.6273 20.6356C92.0641 20.6356 92.4375 20.7248 92.7469 20.9011C93.057 21.0775 93.2922 21.3326 93.457 21.6645C93.6195 21.9965 93.7023 22.3865 93.7023 22.8367C93.7023 23.0586 93.682 23.2702 93.6422 23.4673L93.6406 23.4693Z" fill="white"/>
<path id="Vector_15" d="M102.607 23.3781C102.541 23.2619 102.451 23.1686 102.333 23.1022C102.255 23.0565 102.155 23.0192 102.038 22.986C102.188 22.9403 102.325 22.8678 102.446 22.7723C102.605 22.6458 102.729 22.484 102.82 22.2869C102.911 22.0898 102.956 21.8678 102.956 21.6189C102.956 21.2994 102.888 21.0298 102.752 20.8078C102.616 20.5858 102.426 20.4178 102.178 20.3037C101.933 20.1896 101.648 20.1336 101.327 20.1336H98.4367V25.55H99.1602V23.3117H101.318C101.514 23.3117 101.673 23.3615 101.792 23.459C101.914 23.5585 102.001 23.7141 102.056 23.9257L102.509 25.548H103.278L102.787 23.8261C102.731 23.6436 102.671 23.4943 102.605 23.3781H102.607ZM101.718 22.5877C101.568 22.6686 101.386 22.708 101.176 22.708H99.1625V20.729H101.176C101.494 20.729 101.741 20.814 101.923 20.9841C102.104 21.1542 102.195 21.3907 102.195 21.6936C102.195 21.9052 102.154 22.0877 102.071 22.2392C101.988 22.3906 101.871 22.5068 101.72 22.5877H101.718Z" fill="white"/>
<path id="Vector_16" d="M108.961 20.1315L106.661 25.548H107.385L107.969 24.1457H110.762L111.337 25.548H112.138L109.844 20.1315H108.961ZM108.216 23.544L109.373 20.7601L110.514 23.544H108.214H108.216Z" fill="white"/>
<path id="Vector_17" d="M120.188 20.8887C119.959 20.6459 119.687 20.4593 119.373 20.3265C119.06 20.1958 118.712 20.1294 118.33 20.1294H115.834V25.5459H118.33C118.637 25.5459 118.92 25.5023 119.182 25.4173C119.444 25.3302 119.681 25.2078 119.895 25.0501C120.11 24.8904 120.29 24.6995 120.438 24.4775C120.587 24.2556 120.702 24.0066 120.78 23.7308C120.861 23.4548 120.902 23.1582 120.902 22.8387C120.902 22.4383 120.841 22.0753 120.716 21.7454C120.593 21.4177 120.417 21.1314 120.188 20.8887ZM120.052 23.5524C119.995 23.7701 119.912 23.9652 119.803 24.1394C119.694 24.3137 119.563 24.4609 119.407 24.5792C119.25 24.6974 119.077 24.7887 118.883 24.853C118.689 24.9153 118.478 24.9485 118.254 24.9485H116.556V20.731H118.254C118.541 20.731 118.798 20.7808 119.031 20.8783C119.262 20.9779 119.46 21.1169 119.623 21.2994C119.786 21.482 119.914 21.704 120.005 21.9633C120.096 22.2246 120.141 22.5151 120.141 22.8387C120.141 23.0959 120.112 23.3345 120.055 23.5524H120.052Z" fill="white"/>
<path id="Vector_18" d="M128.958 20.3701C128.53 20.146 128.035 20.0319 127.472 20.0319C127.185 20.0319 126.917 20.0609 126.67 20.119C126.42 20.1771 126.191 20.2621 125.979 20.3742C125.769 20.4862 125.579 20.6231 125.413 20.785C125.248 20.9467 125.106 21.1335 124.991 21.343C124.875 21.5525 124.787 21.7807 124.723 22.0297C124.659 22.2765 124.627 22.5483 124.627 22.8408C124.627 23.4175 124.745 23.9153 124.983 24.3344C125.22 24.7534 125.55 25.077 125.979 25.3053C126.405 25.5335 126.905 25.6476 127.472 25.6476C127.755 25.6476 128.019 25.6185 128.269 25.5604C128.518 25.5023 128.747 25.4173 128.959 25.3053C129.17 25.1932 129.359 25.0563 129.525 24.8945C129.69 24.7327 129.832 24.546 129.948 24.3365C130.063 24.1269 130.152 23.8967 130.216 23.6457C130.28 23.3947 130.311 23.1271 130.311 22.8387C130.311 22.262 130.193 21.7621 129.955 21.3409C129.719 20.9198 129.387 20.5941 128.959 20.3701H128.958ZM129.485 23.4693C129.446 23.6664 129.384 23.8469 129.3 24.0108C129.217 24.1747 129.116 24.3199 128.998 24.4465C128.881 24.5729 128.743 24.6809 128.588 24.768C128.434 24.8551 128.262 24.9236 128.074 24.9692C127.889 25.0148 127.684 25.0377 127.464 25.0377C127.03 25.0377 126.659 24.9485 126.348 24.7722C126.037 24.5958 125.799 24.3406 125.637 24.0087C125.473 23.6768 125.391 23.2868 125.391 22.8367C125.391 22.6084 125.412 22.3989 125.451 22.2039C125.49 22.0089 125.552 21.8305 125.637 21.6645C125.719 21.5007 125.82 21.3555 125.938 21.2289C126.055 21.1023 126.193 20.9945 126.348 20.9053C126.505 20.8161 126.674 20.7497 126.862 20.704C127.048 20.6584 127.252 20.6356 127.472 20.6356C127.909 20.6356 128.283 20.7248 128.592 20.9011C128.902 21.0775 129.137 21.3326 129.302 21.6645C129.465 21.9965 129.548 22.3865 129.548 22.8367C129.548 23.0586 129.527 23.2702 129.487 23.4673L129.485 23.4693Z" fill="white"/>
<path id="Vector_19" d="M138.455 23.3781C138.388 23.2619 138.298 23.1686 138.18 23.1022C138.102 23.0565 138.003 23.0192 137.885 22.986C138.036 22.9403 138.172 22.8678 138.294 22.7723C138.452 22.6458 138.577 22.484 138.667 22.2869C138.758 22.0898 138.803 21.8678 138.803 21.6189C138.803 21.2994 138.735 21.0298 138.599 20.8078C138.462 20.5858 138.273 20.4178 138.026 20.3037C137.78 20.1896 137.495 20.1336 137.173 20.1336H134.284V25.55H135.008V23.3117H137.166C137.361 23.3117 137.52 23.3615 137.64 23.459C137.762 23.5585 137.848 23.7141 137.904 23.9257L138.355 25.548H139.125L138.634 23.8261C138.578 23.6436 138.519 23.4943 138.452 23.3781H138.455ZM137.566 22.5877C137.415 22.6686 137.234 22.708 137.023 22.708H135.009V20.729H137.023C137.341 20.729 137.588 20.814 137.77 20.9841C137.952 21.1542 138.042 21.3907 138.042 21.6936C138.042 21.9052 138.001 22.0877 137.918 22.2392C137.836 22.3906 137.718 22.5068 137.567 22.5877H137.566Z" fill="white"/>
<path id="Vector_20" d="M147.182 25.548H147.983L145.689 20.1315H144.806L142.506 25.548H143.23L143.814 24.1457H146.607L147.182 25.548ZM144.061 23.544L145.219 20.7601L146.359 23.544H144.059H144.061Z" fill="white"/>
<path id="Vector_21" d="M92.0851 1.31378C90.9914 1.31378 89.9648 1.83655 89.3187 2.72443L82.4625 12.126C82.4414 12.1198 82.4414 12.1198 82.4187 12.1115V1.31378H79.5203C78.5078 1.31378 77.5506 1.79091 76.938 2.60204L66.6241 16.2647V17.2791H70.1803L78.0828 7.16384V17.2791H81.9508C82.3695 17.2791 82.7656 17.0861 83.025 16.7542L90.5195 7.16384V17.2791H94.4719C94.682 17.2791 94.8531 17.1069 94.8531 16.8953V1.31378H92.0851Z" fill="white"/>
<path id="Vector_22" d="M64.6066 1.31378H60.9967C60.5966 1.31378 60.2727 1.63947 60.2727 2.04193V17.2812H64.6066V1.31378Z" fill="white"/>
</g>
<defs>
<clipPath id="clip0_0_13">
<rect width="150" height="27" fill="white"/>
</clipPath>
</defs>
</svg>
