<svg width="1920" height="349" viewBox="0 0 1920 349" fill="none" xmlns="http://www.w3.org/2000/svg">
<path fill-rule="evenodd" clip-rule="evenodd" d="M282.837 0.276236H7.0762C3.16845 0.276236 0 3.494 0 7.46258V96.6752C0 100.644 3.16845 103.862 7.0762 103.862H166.053C186.463 103.862 206.055 95.6294 220.471 80.9617L287.827 12.5574C292.289 8.02569 289.121 0.30305 282.837 0.30305V0.276236Z" fill="white"/>
<path fill-rule="evenodd" clip-rule="evenodd" d="M83.3566 348.439H359.117C363.025 348.439 366.193 345.221 366.193 341.252V252.04C366.193 248.071 363.025 244.853 359.117 244.853H200.14C179.73 244.853 160.139 253.085 145.722 267.753L78.3663 336.157C73.904 340.689 77.0725 348.412 83.3566 348.412V348.439Z" fill="white"/>
<path fill-rule="evenodd" clip-rule="evenodd" d="M186.49 174.25H273.068C298.363 174.25 322.628 164.034 340.529 145.88L356.873 129.282C362.867 123.195 366.22 114.963 366.22 106.355V8.32065C366.22 0.919789 357.428 -2.78064 352.279 2.44823L185.513 171.81C183.982 173.365 181.896 174.25 179.731 174.25H93.8656C68.122 174.25 43.4081 184.627 25.2159 203.13L10.1922 218.387C3.69691 224.984 0.0267871 233.967 0.0267871 243.298V340.153C0.0267871 347.554 8.81923 351.254 13.968 346.025L180.734 176.663C182.265 175.108 184.351 174.223 186.516 174.223L186.49 174.25Z" fill="white"/>
<path d="M505.394 62.9154H655.341L504.179 185.995V223.348H737.007C741.813 223.348 745.694 219.406 745.694 214.526V177.387H595.43L745.694 54.4688V16.9818H515.691C510.014 16.9818 505.42 21.6476 505.42 27.4127V62.9154H505.394Z" fill="white"/>
<path d="M1536.51 223.348H1721.89V177.414H1591.99V141.858H1721.89V96.6752H1591.99V62.9154H1721.89V16.9818H1536.51V223.348Z" fill="white"/>
<path d="M1798.31 177.414V16.9818H1742.83V196.909C1742.83 211.523 1754.5 223.348 1768.86 223.348H1920V177.414H1798.31Z" fill="white"/>
<path d="M1503.77 135.986C1497.83 126.949 1489.94 119.924 1480.03 114.882C1486.27 109.653 1491.15 103.486 1494.72 96.3534C1498.28 89.1134 1500.05 81.498 1500.05 73.4536C1500.34 57.9011 1494.4 44.5742 1482.25 33.5265C1470.29 22.4788 1455.8 16.955 1438.79 16.955H1246.47C1241.77 16.955 1237.94 20.8431 1237.94 25.6162V147.811C1237.94 154.139 1240.79 160.119 1245.65 164.034L1309.99 215.867C1315.99 220.693 1323.41 223.321 1331.04 223.321H1450.2C1467.7 223.321 1482.44 217.744 1494.4 206.589C1506.57 195.246 1512.64 181.571 1512.64 165.616C1512.64 154.863 1509.69 144.968 1503.75 135.932L1503.77 135.986ZM1293.44 60.8239H1420.86C1426.91 60.8239 1431.98 62.7814 1436.15 66.6963C1440.3 70.504 1442.38 75.277 1442.38 81.0154C1442.38 86.7537 1440.3 91.2586 1436.15 95.1736C1432.01 99.0885 1426.91 101.046 1420.86 101.046H1293.44V60.8239ZM1450.09 173.794C1445.95 177.709 1440.85 179.667 1434.8 179.667H1293.44V139.445H1434.8C1440.75 139.337 1445.79 141.241 1449.93 145.156C1454.19 149.071 1456.32 153.844 1456.32 159.475C1456.61 165.106 1454.56 169.879 1450.09 173.794Z" fill="white"/>
<path d="M513.42 260.218H504.153V330.231H513.42V260.218Z" fill="white"/>
<path d="M620.118 317.95L579.298 260.218H567.786V330.231H576.473V272.419L617.319 330.231H628.726V260.218H620.118V317.95Z" fill="white"/>
<path d="M733.76 316.636C731.647 318.889 728.981 320.632 725.839 321.838C722.67 323.045 719.132 323.662 715.224 323.662C710.076 323.662 705.561 322.482 701.706 320.122C697.851 317.763 694.841 314.464 692.676 310.228C690.51 305.991 689.428 300.977 689.428 295.211C689.428 292.342 689.692 289.634 690.246 287.06C690.801 284.512 691.593 282.179 692.623 280.061C693.652 277.943 694.92 276.066 696.451 274.43C697.983 272.794 699.672 271.4 701.574 270.247C703.475 269.094 705.587 268.236 707.884 267.592C710.208 266.975 712.637 266.654 715.224 266.654C719.079 266.654 722.538 267.27 725.601 268.477C728.664 269.684 731.251 271.4 733.364 273.626C735.476 275.851 736.928 278.479 737.72 281.482H747.569C746.935 276.977 745.166 273.009 742.262 269.603C739.357 266.198 735.608 263.57 730.961 261.72C726.314 259.87 721.086 258.931 715.224 258.931C711.686 258.931 708.359 259.333 705.244 260.111C702.128 260.889 699.25 262.015 696.61 263.49C693.969 264.964 691.593 266.761 689.507 268.879C687.421 270.998 685.652 273.411 684.2 276.146C682.748 278.854 681.639 281.831 680.873 285.022C680.107 288.24 679.711 291.618 679.711 295.211C679.711 302.478 681.19 308.833 684.147 314.277C687.104 319.72 691.25 323.957 696.61 326.987C701.943 329.99 708.175 331.492 715.251 331.492C721.165 331.492 726.446 330.58 731.04 328.783C735.634 326.987 739.41 324.359 742.341 320.927C745.272 317.494 747.146 313.392 747.991 308.619H738.143C737.377 311.702 735.925 314.357 733.786 316.61L733.76 316.636Z" fill="white"/>
<path d="M851.071 263.302C845.606 260.406 839.269 258.931 832.061 258.931C828.391 258.931 824.958 259.306 821.79 260.057C818.595 260.808 815.664 261.907 812.945 263.355C810.251 264.803 807.822 266.573 805.71 268.665C803.598 270.756 801.776 273.17 800.297 275.878C798.818 278.586 797.683 281.536 796.865 284.754C796.046 287.945 795.65 291.457 795.65 295.238C795.65 302.693 797.155 309.128 800.191 314.545C803.228 319.961 807.453 324.144 812.945 327.094C818.41 330.044 824.8 331.519 832.061 331.519C835.678 331.519 839.058 331.143 842.253 330.392C845.447 329.641 848.378 328.542 851.098 327.094C853.791 325.646 856.22 323.876 858.332 321.785C860.445 319.693 862.267 317.28 863.745 314.572C865.224 311.863 866.359 308.887 867.178 305.642C867.996 302.398 868.392 298.939 868.392 295.211C868.392 287.757 866.887 281.295 863.851 275.851C860.814 270.408 856.563 266.198 851.098 263.302H851.071ZM857.831 303.363C857.329 305.91 856.537 308.243 855.454 310.362C854.398 312.48 853.105 314.357 851.6 315.993C850.095 317.628 848.325 319.023 846.345 320.149C844.338 321.302 842.173 322.16 839.771 322.75C837.394 323.34 834.78 323.635 831.955 323.635C826.41 323.635 821.658 322.482 817.671 320.203C813.684 317.923 810.647 314.625 808.561 310.335C806.476 306.045 805.419 301.003 805.419 295.185C805.419 292.235 805.683 289.527 806.185 287.006C806.687 284.485 807.479 282.179 808.561 280.034C809.618 277.916 810.911 276.039 812.416 274.403C813.921 272.767 815.69 271.373 817.671 270.22C819.677 269.067 821.843 268.209 824.245 267.619C826.622 267.029 829.236 266.734 832.061 266.734C837.658 266.734 842.437 267.887 846.398 270.166C850.359 272.446 853.369 275.744 855.481 280.034C857.567 284.325 858.623 289.366 858.623 295.185C858.623 298.054 858.359 300.789 857.857 303.336L857.831 303.363Z" fill="white"/>
<path d="M972.634 302.183C971.789 300.682 970.628 299.475 969.123 298.617C968.119 298.027 966.852 297.544 965.347 297.115C967.274 296.525 969.017 295.587 970.575 294.353C972.608 292.718 974.192 290.626 975.354 288.079C976.516 285.531 977.096 282.662 977.096 279.444C977.096 275.315 976.225 271.829 974.482 268.96C972.74 266.091 970.311 263.919 967.142 262.444C964 260.969 960.356 260.245 956.237 260.245H919.246V330.258H928.514V301.325H956.132C958.64 301.325 960.673 301.969 962.205 303.229C963.763 304.516 964.872 306.527 965.585 309.262L971.367 330.231H981.215L974.931 307.975C974.218 305.616 973.453 303.685 972.608 302.183H972.634ZM961.254 291.967C959.327 293.013 957.003 293.522 954.31 293.522H928.54V267.941H954.31C958.376 267.941 961.545 269.04 963.868 271.239C966.192 273.438 967.353 276.495 967.353 280.41C967.353 283.145 966.825 285.504 965.769 287.462C964.713 289.419 963.208 290.921 961.281 291.967H961.254Z" fill="white"/>
<path d="M1083.74 265.796C1081.76 263.972 1079.46 262.578 1076.8 261.613C1074.13 260.674 1071.17 260.191 1067.95 260.191H1032.04V330.205H1041.42V302.344H1067.98C1071.2 302.344 1074.13 301.861 1076.82 300.923C1079.49 299.984 1081.81 298.59 1083.77 296.767C1085.72 294.943 1087.25 292.718 1088.36 290.143C1089.44 287.569 1090 284.593 1090 281.268C1090 277.943 1089.44 275.074 1088.36 272.446C1087.25 269.845 1085.75 267.619 1083.77 265.769L1083.74 265.796ZM1078.57 288.347C1077.46 290.385 1075.9 291.913 1073.89 293.013C1071.86 294.085 1069.38 294.621 1066.42 294.621H1041.42V267.941H1066.42C1070.8 267.941 1074.18 269.147 1076.61 271.561C1079.01 273.974 1080.23 277.246 1080.23 281.375C1080.23 283.976 1079.67 286.309 1078.59 288.347H1078.57Z" fill="white"/>
<path d="M1191.84 263.302C1186.37 260.406 1180.04 258.931 1172.83 258.931C1169.16 258.931 1165.72 259.306 1162.56 260.057C1159.36 260.808 1156.43 261.907 1153.71 263.355C1151.02 264.803 1148.59 266.573 1146.48 268.665C1144.36 270.756 1142.54 273.17 1141.06 275.878C1139.59 278.586 1138.45 281.536 1137.63 284.754C1136.81 287.945 1136.42 291.457 1136.42 295.238C1136.42 302.693 1137.92 309.128 1140.96 314.545C1143.99 319.961 1148.22 324.144 1153.71 327.094C1159.18 330.044 1165.57 331.519 1172.83 331.519C1176.44 331.519 1179.82 331.143 1183.02 330.392C1186.21 329.641 1189.14 328.542 1191.86 327.094C1194.56 325.646 1196.99 323.876 1199.1 321.785C1201.21 319.693 1203.03 317.28 1204.51 314.572C1205.99 311.863 1207.13 308.887 1207.94 305.642C1208.76 302.398 1209.16 298.939 1209.16 295.211C1209.16 287.757 1207.65 281.295 1204.62 275.851C1201.58 270.408 1197.33 266.198 1191.86 263.302H1191.84ZM1198.6 303.363C1198.1 305.91 1197.3 308.243 1196.22 310.362C1195.16 312.48 1193.87 314.357 1192.37 315.993C1190.86 317.628 1189.09 319.023 1187.11 320.149C1185.11 321.302 1182.94 322.16 1180.54 322.75C1178.16 323.34 1175.55 323.635 1172.72 323.635C1167.18 323.635 1162.42 322.482 1158.44 320.203C1154.45 317.923 1151.41 314.625 1149.33 310.335C1147.24 306.045 1146.19 301.003 1146.19 295.185C1146.19 292.235 1146.45 289.527 1146.95 287.006C1147.45 284.485 1148.25 282.179 1149.33 280.034C1150.38 277.916 1151.68 276.039 1153.18 274.403C1154.69 272.767 1156.46 271.373 1158.44 270.22C1160.44 269.067 1162.61 268.209 1165.01 267.619C1167.39 267.029 1170 266.734 1172.83 266.734C1178.42 266.734 1183.2 267.887 1187.16 270.166C1191.13 272.446 1194.14 275.744 1196.25 280.034C1198.33 284.325 1199.39 289.366 1199.39 295.185C1199.39 298.054 1199.13 300.789 1198.62 303.336L1198.6 303.363Z" fill="white"/>
<path d="M1313.37 302.183C1312.53 300.682 1311.37 299.475 1309.86 298.617C1308.86 298.027 1307.59 297.544 1306.09 297.115C1308.01 296.525 1309.76 295.587 1311.31 294.353C1313.35 292.718 1314.93 290.626 1316.09 288.079C1317.26 285.531 1317.84 282.662 1317.84 279.444C1317.84 275.315 1316.97 271.829 1315.22 268.96C1313.48 266.091 1311.05 263.919 1307.88 262.444C1304.74 260.969 1301.1 260.245 1296.98 260.245H1259.99V330.258H1269.25V301.325H1296.87C1299.38 301.325 1301.41 301.969 1302.94 303.229C1304.5 304.516 1305.61 306.527 1306.32 309.262L1312.11 330.231H1321.96L1315.67 307.975C1314.96 305.616 1314.19 303.685 1313.35 302.183H1313.37ZM1301.99 291.967C1300.07 293.013 1297.74 293.522 1295.05 293.522H1269.28V267.941H1295.05C1299.12 267.941 1302.28 269.04 1304.61 271.239C1306.93 273.438 1308.09 276.495 1308.09 280.41C1308.09 283.145 1307.57 285.504 1306.51 287.462C1305.45 289.419 1303.95 290.921 1302.02 291.967H1301.99Z" fill="white"/>
<path d="M1394.7 260.218L1365.26 330.231H1374.53L1382 312.105H1417.75L1425.11 330.231H1435.36L1406 260.218H1394.7ZM1385.17 304.328L1399.98 268.343L1414.58 304.328H1385.14H1385.17Z" fill="white"/>
<path d="M1538.41 270.006C1535.48 266.868 1532 264.455 1527.98 262.739C1523.97 261.049 1519.51 260.191 1514.62 260.191H1482.67V330.205H1514.62C1518.56 330.205 1522.18 329.641 1525.53 328.542C1528.88 327.416 1531.92 325.834 1534.66 323.796C1537.41 321.731 1539.71 319.264 1541.61 316.395C1543.51 313.526 1544.99 310.308 1545.99 306.742C1547.02 303.175 1547.55 299.341 1547.55 295.211C1547.55 290.036 1546.76 285.344 1545.17 281.08C1543.59 276.843 1541.34 273.143 1538.41 270.006ZM1536.67 304.436C1535.93 307.251 1534.88 309.772 1533.48 312.024C1532.08 314.277 1530.41 316.18 1528.41 317.709C1526.4 319.237 1524.18 320.417 1521.7 321.248C1519.22 322.053 1516.52 322.482 1513.65 322.482H1491.92V267.968H1513.65C1517.32 267.968 1520.62 268.611 1523.6 269.871C1526.56 271.159 1529.09 272.955 1531.18 275.315C1533.26 277.675 1534.9 280.544 1536.06 283.896C1537.23 287.274 1537.81 291.028 1537.81 295.211C1537.81 298.536 1537.44 301.62 1536.7 304.436H1536.67Z" fill="white"/>
<path d="M1650.66 263.302C1645.19 260.406 1638.85 258.931 1631.64 258.931C1627.97 258.931 1624.54 259.306 1621.37 260.057C1618.18 260.808 1615.25 261.907 1612.53 263.355C1609.84 264.803 1607.41 266.573 1605.29 268.665C1603.18 270.756 1601.36 273.17 1599.88 275.878C1598.4 278.586 1597.27 281.536 1596.45 284.754C1595.63 287.945 1595.23 291.457 1595.23 295.238C1595.23 302.693 1596.74 309.128 1599.78 314.545C1602.81 319.961 1607.04 324.144 1612.53 327.094C1617.99 330.044 1624.38 331.519 1631.64 331.519C1635.26 331.519 1638.64 331.143 1641.84 330.392C1645.03 329.641 1647.96 328.542 1650.68 327.094C1653.38 325.646 1655.8 323.876 1657.92 321.785C1660.03 319.693 1661.85 317.28 1663.33 314.572C1664.81 311.863 1665.94 308.887 1666.76 305.642C1667.58 302.398 1667.98 298.939 1667.98 295.211C1667.98 287.757 1666.47 281.295 1663.43 275.851C1660.4 270.408 1656.15 266.198 1650.68 263.302H1650.66ZM1657.41 303.363C1656.91 305.91 1656.12 308.243 1655.04 310.362C1653.98 312.48 1652.69 314.357 1651.18 315.993C1649.68 317.628 1647.91 319.023 1645.93 320.149C1643.95 321.275 1641.76 322.16 1639.35 322.75C1636.98 323.34 1634.36 323.635 1631.54 323.635C1625.99 323.635 1621.24 322.482 1617.26 320.203C1613.27 317.923 1610.23 314.625 1608.15 310.335C1606.06 306.045 1605 301.003 1605 295.185C1605 292.235 1605.27 289.527 1605.77 287.006C1606.27 284.485 1607.06 282.179 1608.15 280.034C1609.2 277.916 1610.5 276.039 1612 274.403C1613.51 272.767 1615.27 271.373 1617.26 270.22C1619.26 269.067 1621.43 268.209 1623.83 267.619C1626.21 267.029 1628.82 266.734 1631.64 266.734C1637.24 266.734 1642.02 267.887 1645.98 270.166C1649.94 272.446 1652.95 275.744 1655.07 280.034C1657.15 284.325 1658.21 289.366 1658.21 295.185C1658.21 298.054 1657.94 300.789 1657.44 303.336L1657.41 303.363Z" fill="white"/>
<path d="M1772.22 302.183C1771.37 300.682 1770.21 299.475 1768.71 298.617C1767.7 298.027 1766.44 297.544 1764.93 297.115C1766.86 296.525 1768.6 295.587 1770.16 294.353C1772.19 292.718 1773.78 290.626 1774.94 288.079C1776.1 285.531 1776.68 282.662 1776.68 279.444C1776.68 275.315 1775.81 271.829 1774.07 268.96C1772.32 266.091 1769.89 263.919 1766.73 262.444C1763.58 260.969 1759.94 260.245 1755.82 260.245H1718.83V330.258H1728.1V301.325H1755.72C1758.22 301.325 1760.26 301.969 1761.79 303.229C1763.35 304.516 1764.46 306.527 1765.17 309.262L1770.95 330.231H1780.8L1774.52 307.975C1773.8 305.616 1773.04 303.685 1772.19 302.183H1772.22ZM1760.84 291.967C1758.91 293.013 1756.59 293.522 1753.89 293.522H1728.12V267.941H1753.89C1757.96 267.941 1761.13 269.04 1763.45 271.239C1765.78 273.438 1766.94 276.495 1766.94 280.41C1766.94 283.145 1766.41 285.504 1765.35 287.462C1764.3 289.419 1762.79 290.921 1760.86 291.967H1760.84Z" fill="white"/>
<path d="M1883.93 330.231H1894.18L1864.82 260.218H1853.52L1824.08 330.231H1833.34L1840.82 312.105H1876.57L1883.93 330.231ZM1843.98 304.328L1858.8 268.343L1873.4 304.328H1843.96H1843.98Z" fill="white"/>
<path d="M1178.69 16.9818C1164.69 16.9818 1151.55 23.7391 1143.28 35.2158L1055.52 156.74C1055.25 156.66 1055.25 156.66 1054.96 156.552V16.9818H1017.86C1004.9 16.9818 992.648 23.1492 984.806 33.6338L852.788 210.236V223.348H898.308L999.46 92.5993V223.348H1048.97C1054.33 223.348 1059.4 220.854 1062.72 216.564L1158.65 92.5993V223.348H1209.24C1211.93 223.348 1214.12 221.122 1214.12 218.387V16.9818H1178.69Z" fill="white"/>
<path d="M826.965 16.9818H780.758C775.636 16.9818 771.491 21.1917 771.491 26.3938V223.375H826.965V16.9818Z" fill="white"/>
</svg>
