<svg preserveAspectRatio="none" overflow="visible" style="display: block;" width="77.9447" height="61.63" viewBox="0 0 77.9447 61.63" fill="none" xmlns="http://www.w3.org/2000/svg">
<g id="Group">
<path id="Vector" d="M77.4414 41.6313C76.9203 41.2776 76.2095 41.4142 75.8539 41.9342C75.7581 42.0744 73.458 45.3671 69.2341 45.3671C65.01 45.3671 62.71 42.0744 62.6166 41.938C62.1958 41.2714 61.1374 41.2721 60.7171 41.9389C60.6941 41.9732 58.3678 45.3673 54.106 45.3673C50.5338 45.3673 48.338 43.0128 47.6887 42.2034V24.476H76.8006C77.4325 24.476 77.9447 23.9639 77.9447 23.332C77.9447 22.7 77.4325 22.1879 76.8006 22.1879H67.6007V13.85C67.6007 6.28574 61.5199 0.0730216 54.0454 0.000709864C50.3682 -0.0362833 46.9004 1.37372 44.2821 3.96674C43.0144 5.22223 42.0252 6.68034 41.3391 8.26648C39.2244 3.45082 34.4687 0.0541444 28.9537 0.000709864C28.9083 0.000253158 28.863 0.000100677 28.8176 0.000100677C25.1906 0.000100677 21.7763 1.40569 19.1902 3.96674C16.5715 6.56037 15.1291 10.0135 15.1291 13.69V22.1881H1.23089C0.598963 22.1881 0.0868441 22.7002 0.0868441 23.3321C0.0868441 23.9641 0.598963 24.4762 1.23089 24.4762H15.1291V28.9939C15.1291 29.6258 15.6412 30.138 16.2731 30.138C16.905 30.138 17.4172 29.6258 17.4172 28.9939V13.69C17.4172 10.6287 18.6186 7.75299 20.8004 5.59231C22.9815 3.4324 25.8668 2.25227 28.9318 2.28865C35.1565 2.34879 40.2209 7.53529 40.2209 13.85V22.1879H37.3292V13.69C37.3292 9.07728 33.5778 5.26013 28.9669 5.18112C28.9182 5.18036 28.8701 5.17991 28.8216 5.17991C26.6135 5.17991 24.5214 6.04354 22.9165 7.62115C21.2593 9.25022 20.3089 11.5098 20.3089 13.8206V44.5253C18.7838 43.7594 17.8063 42.678 17.417 42.1903V33.5698C17.417 32.9379 16.9049 32.4258 16.273 32.4258C15.641 32.4258 15.1289 32.9379 15.1289 33.5698V42.2018C14.4773 43.0143 12.2818 45.3671 8.71097 45.3671C4.4869 45.3671 2.18693 42.0744 2.09346 41.938C1.74088 41.4137 1.03009 41.2746 0.505795 41.627C-0.0185027 41.9794 -0.157798 42.6902 0.194779 43.2147C0.316567 43.396 3.24314 47.6552 8.71082 47.6552C12.449 47.6552 14.9992 45.6646 16.2775 44.3471C17.5558 45.6646 20.1062 47.6552 23.8442 47.6552C27.5814 47.6552 30.1288 45.6657 31.406 44.3478C32.6847 45.6653 35.2348 47.6552 38.972 47.6552C42.7101 47.6552 45.2604 45.6646 46.5387 44.3471C47.817 45.6646 50.3674 47.6552 54.1054 47.6552C57.8426 47.6552 60.39 45.6657 61.6672 44.3478C62.9458 45.6653 65.4959 47.6552 69.2332 47.6552C74.701 47.6552 77.6274 43.396 77.7492 43.2147C78.1015 42.6917 77.9628 41.9849 77.4414 41.6313ZM22.597 32.4259H40.2209V35.6289H22.597V32.4259ZM40.2209 30.1378H22.597V24.476H40.2209V30.1378ZM24.5206 9.25296C25.7196 8.07435 27.2843 7.4409 28.9277 7.46891C32.2988 7.52676 35.0413 10.3175 35.0413 13.6902V22.1882H22.5971V13.8208C22.597 12.1194 23.2982 10.4546 24.5206 9.25296ZM32.3551 41.938C31.9348 41.275 30.8816 41.2746 30.4582 41.9353C30.3626 42.0753 28.0678 45.3671 23.8447 45.3671C23.4076 45.3671 22.9925 45.3303 22.597 45.2669V37.9169H40.2209V45.2668C39.8253 45.3301 39.4098 45.3671 38.9724 45.3671C34.7485 45.3671 32.4484 42.0744 32.3551 41.938ZM42.5089 44.5248V13.69C42.5089 10.6287 43.7103 7.75299 45.8921 5.59231C48.0732 3.4324 50.9588 2.25227 54.0233 2.28865C60.2482 2.34879 65.3126 7.53529 65.3126 13.85V22.1879H62.4209V19.6448C62.4209 19.0129 61.9088 18.5008 61.2769 18.5008C60.645 18.5008 60.1328 19.0129 60.1328 19.6448V22.1879H47.6885V13.8205C47.6885 12.1192 48.3897 10.4544 49.6122 9.25265C50.8112 8.07405 52.3729 7.4406 54.0192 7.46861C57.3903 7.52646 60.1328 10.3172 60.1328 13.6899V15.0688C60.1328 15.7007 60.645 16.2129 61.2769 16.2129C61.9088 16.2129 62.4209 15.7007 62.4209 15.0688V13.6899C62.4209 9.07713 58.6696 5.25998 54.0587 5.18097C54.0099 5.18021 53.9618 5.17975 53.9133 5.17975C51.7052 5.17975 49.6132 6.04338 48.0082 7.621C46.3511 9.25007 45.4006 11.5097 45.4006 13.8205V42.1888C45.0102 42.6785 44.0327 43.7594 42.5089 44.5248Z" fill="white"/>
<path id="Vector_2" d="M31.4115 59.3419C27.1874 59.3419 24.8874 56.0492 24.794 55.9128C24.3739 55.2501 23.3215 55.2495 22.8977 55.9092C22.802 56.0494 20.5018 59.3421 16.2779 59.3421C12.054 59.3421 9.75388 56.0494 9.66041 55.913C9.30783 55.3885 8.59704 55.2494 8.07274 55.6019C7.54845 55.9544 7.40915 56.6651 7.76173 57.1894C7.88352 57.3708 10.8099 61.63 16.2778 61.63C20.0159 61.63 22.5661 59.6394 23.8445 58.3219C25.1228 59.6394 27.6732 61.63 31.4113 61.63C32.0432 61.63 32.5554 61.1179 32.5554 60.4859C32.5554 59.854 32.0434 59.3419 31.4115 59.3419Z" fill="white"/>
<path id="Vector_3" d="M69.8732 55.6053C69.3515 55.2522 68.6412 55.3895 68.2858 55.9099C68.1902 56.0499 65.8956 59.3417 61.6723 59.3417C57.4482 59.3417 55.1482 56.049 55.0548 55.9126C54.6343 55.2464 53.5766 55.2466 53.1561 55.9126C53.133 55.9469 50.8012 59.3417 46.5386 59.3417C42.3145 59.3417 40.0145 56.049 39.9211 55.9126C39.5007 55.2496 38.4476 55.2492 38.0242 55.9099C38.0151 55.9231 37.0919 57.2587 35.3889 58.2526C34.8433 58.5713 34.6591 59.2718 34.9777 59.8175C35.2963 60.3629 35.9966 60.547 36.5425 60.2288C37.5934 59.6153 38.406 58.9022 38.971 58.3207C40.249 59.6381 42.7995 61.6298 46.5386 61.6298C50.2767 61.6298 52.827 59.6392 54.1053 58.3217C55.3836 59.6392 57.934 61.6298 61.672 61.6298C67.1406 61.6298 70.0615 57.3697 70.1831 57.1884C70.5345 56.6648 70.3951 55.9583 69.8732 55.6053Z" fill="white"/>
</g>
</svg>
